Coordinates
version=1
nRows=31
nColumns=38
inDegrees=no

Units are S.I. units (second, meters, Newtons, ...)
If the header above contains a line with 'inDegrees', this indicates whether rotational values are in degrees (yes) or radians (no).

endheader
time	pelvis_tilt	pelvis_list	pelvis_rotation	pelvis_tx	pelvis_ty	pelvis_tz	hip_flexion_r	hip_adduction_r	hip_rotation_r	knee_angle_r	ankle_angle_r	subtalar_angle_r	mtp_angle_r	hip_flexion_l	hip_adduction_l	hip_rotation_l	knee_angle_l	ankle_angle_l	subtalar_angle_l	mtp_angle_l	lumbar_extension	lumbar_bending	lumbar_rotation	arm_flex_r	arm_add_r	arm_rot_r	elbow_flex_r	pro_sup_r	wrist_flex_r	wrist_dev_r	arm_flex_l	arm_add_l	arm_rot_l	elbow_flex_l	pro_sup_l	wrist_flex_l	wrist_dev_l
3.1125	0.213932	0.0150655	-3.03019	-0.22875	0.803227	0.0100289	0.962494	-0.362707	-0.265329	1.25815	0.440422	0	0	1.0059	-0.147564	-0.0141255	1.23938	0.463111	0	0	-0.242812	0.0307226	-0.0158154	1.07712	-0.443293	1.26304	1.55343	1.25699	0	0	1.16245	-0.314032	1.31193	1.45004	1.43502	0	0
3.12248	0.209145	0.0144569	-3.02936	-0.231562	0.809429	0.00967021	0.941127	-0.35776	-0.269634	1.23722	0.435678	0	0	0.98497	-0.146846	-0.0156886	1.21771	0.457434	0	0	-0.238614	0.0289873	-0.0160948	1.06145	-0.441699	1.27307	1.54432	1.25289	0	0	1.153	-0.313417	1.33222	1.44145	1.42778	0	0
3.13245	0.204506	0.0139096	-3.02848	-0.23438	0.815631	0.00932492	0.919847	-0.352593	-0.273767	1.21586	0.43064	0	0	0.964115	-0.145939	-0.0169894	1.19563	0.451488	0	0	-0.234294	0.0273053	-0.0164349	1.04594	-0.440122	1.28322	1.53516	1.2487	0	0	1.1439	-0.312824	1.35286	1.4329	1.42102	0	0
3.14243	0.200088	0.0134138	-3.02754	-0.237201	0.821821	0.00899651	0.89874	-0.347236	-0.277712	1.19409	0.425312	0	0	0.943414	-0.144823	-0.0180254	1.17315	0.445252	0	0	-0.229778	0.0256737	-0.016859	1.03055	-0.438583	1.29342	1.52603	1.24439	0	0	1.13506	-0.312272	1.37368	1.42442	1.41505	0	0
3.1524	0.19595	0.012964	-3.02652	-0.240023	0.82799	0.00868786	0.877883	-0.341706	-0.281451	1.17192	0.419702	0	0	0.922938	-0.143492	-0.0188007	1.15029	0.438705	0	0	-0.225008	0.0240947	-0.0173723	1.01524	-0.437103	1.30361	1.51699	1.23999	0	0	1.12642	-0.311765	1.39446	1.41603	1.41008	0	0
3.16238	0.192129	0.0125646	-3.02545	-0.242845	0.834128	0.00840134	0.857321	-0.336006	-0.284974	1.14937	0.413817	0	0	0.902735	-0.141964	-0.0193196	1.12706	0.431826	0	0	-0.219954	0.0225841	-0.0179729	1	-0.435697	1.31373	1.50808	1.23554	0	0	1.11787	-0.311317	1.41499	1.40778	1.40619	0	0
3.17236	0.188631	0.01223	-3.02435	-0.245665	0.840227	0.00813867	0.837066	-0.330126	-0.288281	1.12643	0.407663	0	0	0.882823	-0.140271	-0.0195852	1.10348	0.424597	0	0	-0.214614	0.0211722	-0.0186566	0.984838	-0.434364	1.32376	1.49931	1.2311	0	0	1.10931	-0.310949	1.43504	1.39971	1.40342	0	0
3.18233	0.185444	0.0119778	-3.02323	-0.248484	0.846277	0.00790103	0.817112	-0.324049	-0.29137	1.10311	0.40124	0	0	0.863201	-0.138458	-0.0196047	1.07958	0.417005	0	0	-0.20901	0.0198952	-0.0194216	0.969788	-0.433083	1.3337	1.49065	1.22676	0	0	1.10067	-0.310687	1.45442	1.39185	1.40176	0	0
3.19231	0.182545	0.0118207	-3.02212	-0.251301	0.852272	0.00768987	0.797444	-0.317765	-0.294241	1.07943	0.394548	0	0	0.843859	-0.136568	-0.0193904	1.05539	0.409049	0	0	-0.203167	0.0187865	-0.0202774	0.954905	-0.431814	1.34363	1.48208	1.22266	0	0	1.09184	-0.310559	1.47293	1.38423	1.40121	0	0
3.20228	0.179906	0.0117665	-3.02105	-0.254118	0.858204	0.00750692	0.778042	-0.311278	-0.296899	1.05541	0.387586	0	0	0.824776	-0.134634	-0.0189567	1.03097	0.400745	0	0	-0.197112	0.017877	-0.0212486	0.940266	-0.430497	1.35367	1.47351	1.21899	0	0	1.08275	-0.310599	1.49035	1.37687	1.40172	0	0
3.21226	0.177486	0.0118241	-3.02002	-0.256936	0.864064	0.0073541	0.758866	-0.304594	-0.299367	1.03107	0.380353	0	0	0.805917	-0.132693	-0.0183154	1.00633	0.392129	0	0	-0.190891	0.0172009	-0.0223688	0.925969	-0.429049	1.36399	1.46487	1.21602	0	0	1.07329	-0.310854	1.50647	1.3698	1.40328	0	0
3.22224	0.175232	0.0120029	-3.01906	-0.259756	0.869847	0.00723341	0.739858	-0.297729	-0.301681	1.00641	0.372844	0	0	0.787232	-0.130781	-0.017476	0.981514	0.383251	0	0	-0.184559	0.016792	-0.0236718	0.912121	-0.427388	1.37481	1.45609	1.21397	0	0	1.06339	-0.311363	1.52106	1.36303	1.40585	0	0
3.23221	0.173093	0.0123059	-3.01818	-0.262579	0.875549	0.00714675	0.720959	-0.290706	-0.30389	0.98144	0.365057	0	0	0.76867	-0.128921	-0.0164499	0.956544	0.374163	0	0	-0.178172	0.0166707	-0.0251815	0.898812	-0.425445	1.3863	1.4471	1.21295	0	0	1.05299	-0.312146	1.53395	1.35655	1.40941	0	0
3.24219	0.171035	0.0127272	-3.01738	-0.265404	0.881164	0.00709533	0.702123	-0.283558	-0.306034	0.95616	0.356999	0	0	0.75019	-0.127134	-0.0152588	0.931434	0.364917	0	0	-0.171776	0.0168371	-0.0269014	0.886098	-0.423186	1.39855	1.43785	1.21296	0	0	1.04206	-0.313197	1.54496	1.35035	1.41383	0	0
3.25216	0.16902	0.0132609	-3.01669	-0.268229	0.886689	0.00707933	0.683301	-0.276308	-0.308152	0.930558	0.348668	0	0	0.731747	-0.125439	-0.0139318	0.906191	0.355553	0	0	-0.165421	0.0172826	-0.0288098	0.874004	-0.420608	1.41158	1.42835	1.21388	0	0	1.03059	-0.314478	1.55402	1.34435	1.419	0	0
3.26214	0.167009	0.013904	-3.01611	-0.271053	0.892121	0.0070977	0.664433	-0.268969	-0.310279	0.904603	0.340057	0	0	0.713289	-0.123864	-0.0125027	0.880815	0.346098	0	0	-0.159163	0.0179923	-0.0308568	0.862516	-0.417738	1.42532	1.41858	1.21553	0	0	1.01859	-0.315916	1.56112	1.33847	1.42481	0	0
3.27212	0.164967	0.0146536	-3.01568	-0.273874	0.897459	0.00714846	0.645466	-0.261545	-0.312441	0.87826	0.331152	0	0	0.694771	-0.122439	-0.0110074	0.8553	0.336569	0	0	-0.153051	0.0189426	-0.03297	0.851582	-0.414637	1.4396	1.40857	1.21772	0	0	1.00612	-0.317403	1.5664	1.33257	1.43112	0	0
3.28209	0.162869	0.015505	-3.0154	-0.276691	0.902701	0.00722907	0.626357	-0.254034	-0.314649	0.85149	0.321933	0	0	0.676157	-0.121184	-0.00947988	0.829638	0.326979	0	0	-0.147124	0.0201041	-0.0350712	0.841116	-0.411376	1.45421	1.39835	1.22027	0	0	0.993229	-0.318818	1.57008	1.3265	1.43778	0	0
3.29207	0.160693	0.0164541	-3.01529	-0.279502	0.907843	0.00733682	0.60707	-0.246427	-0.316899	0.824255	0.312382	0	0	0.657418	-0.12012	-0.00794603	0.803826	0.317338	0	0	-0.141417	0.021449	-0.0370883	0.831021	-0.408027	1.46889	1.38796	1.22305	0	0	0.979997	-0.320044	1.57244	1.3201	1.44464	0	0
3.30204	0.158422	0.0174977	-3.01536	-0.282306	0.912883	0.00746923	0.587576	-0.23871	-0.319171	0.796523	0.302485	0	0	0.638529	-0.119254	-0.00642054	0.777864	0.307658	0	0	-0.135964	0.0229535	-0.0389602	0.821187	-0.404661	1.48333	1.37742	1.22596	0	0	0.966487	-0.320982	1.57376	1.31326	1.45163	0	0
3.31202	0.156037	0.0186313	-3.01561	-0.2851	0.917817	0.00762435	0.56785	-0.230867	-0.321427	0.768274	0.292241	0	0	0.619474	-0.118587	-0.0049046	0.751758	0.297957	0	0	-0.130804	0.0245965	-0.0406378	0.811496	-0.401344	1.49723	1.36677	1.22901	0	0	0.952755	-0.321546	1.5743	1.30588	1.45875	0	0
3.322	0.153521	0.0198472	-3.01604	-0.287881	0.92264	0.00780059	0.547873	-0.222884	-0.323617	0.739504	0.281662	0	0	0.600234	-0.118107	-0.00338956	0.725526	0.288255	0	0	-0.125977	0.0263564	-0.0420838	0.801826	-0.398138	1.51025	1.35604	1.23217	0	0	0.938845	-0.321674	1.57429	1.29789	1.46603	0	0
3.33197	0.150846	0.0211345	-3.01666	-0.290647	0.927346	0.00799622	0.527626	-0.214751	-0.325679	0.710225	0.270774	0	0	0.580791	-0.117799	-0.00186026	0.699192	0.278579	0	0	-0.121538	0.0282113	-0.0432718	0.792054	-0.395091	1.52205	1.34524	1.23543	0	0	0.924784	-0.321327	1.57391	1.28925	1.47355	0	0
3.34195	0.147975	0.0224794	-3.01745	-0.293394	0.931928	0.0082093	0.507093	-0.206462	-0.327547	0.680475	0.259612	0	0	0.561119	-0.117642	-0.000297923	0.672793	0.26896	0	0	-0.117556	0.0301413	-0.0441875	0.782081	-0.392234	1.53233	1.33439	1.23883	0	0	0.91058	-0.320492	1.57331	1.27992	1.48135	0	0
3.35192	0.144865	0.0238637	-3.01842	-0.296116	0.936377	0.0084382	0.486264	-0.198028	-0.329161	0.65032	0.248219	0	0	0.541198	-0.117613	0.00131841	0.646383	0.259431	0	0	-0.114111	0.0321267	-0.0448336	0.771832	-0.389576	1.54091	1.32347	1.24239	0	0	0.896216	-0.319187	1.57261	1.26988	1.48947	0	0
3.3619	0.141478	0.0252608	-3.01957	-0.298809	0.940684	0.00868212	0.465154	-0.189484	-0.330477	0.619864	0.23665	0	0	0.521022	-0.117674	0.003011	0.62003	0.250025	0	0	-0.111279	0.0341432	-0.0452355	0.761257	-0.387102	1.54775	1.31243	1.24613	0	0	0.88165	-0.317454	1.57189	1.25914	1.4979	0	0
3.37188	0.13779	0.0266345	-3.02087	-0.301466	0.944835	0.00894135	0.443806	-0.180897	-0.331473	0.589251	0.224976	0	0	0.500615	-0.117776	0.00480089	0.593824	0.240778	0	0	-0.10912	0.036159	-0.0454416	0.750333	-0.384779	1.55296	1.30124	1.25004	0	0	0.866822	-0.315361	1.5712	1.24772	1.50655	0	0
3.38185	0.133792	0.0279391	-3.0223	-0.304083	0.948815	0.00921714	0.422299	-0.172368	-0.332156	0.558667	0.213286	0	0	0.480028	-0.117856	0.00670594	0.567872	0.231726	0	0	-0.107674	0.0381313	-0.045515	0.739046	-0.382563	1.55673	1.28983	1.25405	0	0	0.851664	-0.312982	1.57056	1.23567	1.51524	0	0
3.39183	0.129496	0.0291219	-3.02382	-0.306652	0.952606	0.00951127	0.400742	-0.164022	-0.332565	0.528328	0.201681	0	0	0.459346	-0.117844	0.00873556	0.542296	0.222904	0	0	-0.10695	0.0400069	-0.0455246	0.727389	-0.380409	1.55931	1.27817	1.25807	0	0	0.836115	-0.31039	1.57	1.22305	1.52376	0	0
3.4018	0.124928	0.0301279	-3.02539	-0.30917	0.956189	0.00982567	0.379263	-0.155999	-0.332767	0.49847	0.190274	0	0	0.438675	-0.117672	0.0108845	0.517233	0.214355	0	0	-0.106933	0.0417268	-0.0455359	0.715366	-0.37827	1.56095	1.26621	1.26199	0	0	0.820137	-0.307648	1.56952	1.20991	1.53182	0	0
3.41178	0.120123	0.0309067	-3.02696	-0.311633	0.959545	0.0101619	0.357991	-0.148435	-0.33285	0.469329	0.179184	0	0	0.418129	-0.117284	0.0131279	0.492823	0.206127	0	0	-0.107574	0.0432316	-0.0456072	0.70299	-0.376102	1.56187	1.25391	1.26567	0	0	0.803741	-0.304794	1.5691	1.1963	1.53917	0	0
